<mxfile host="Electron" modified="2024-05-20T07:06:23.905Z" agent="Mozilla/5.0 (Macintosh; Intel Mac OS X 10_15_7) AppleWebKit/537.36 (KHTML, like Gecko) draw.io/24.4.0 Chrome/120.0.6099.109 Electron/28.1.0 Safari/537.36" etag="gi8qzqrfqFPiYovJavO3" version="24.4.0" type="device">
  <diagram name="Page-1" id="-3eqohIDHNflEQJIuW_f">
    <mxGraphModel dx="828" dy="605" grid="1" gridSize="10" guides="1" tooltips="1" connect="1" arrows="1" fold="1" page="1" pageScale="1" pageWidth="850" pageHeight="1100" math="0" shadow="0">
      <root>
        <mxCell id="0" />
        <mxCell id="1" parent="0" />
        <mxCell id="Ex-S2w4-J81rD9a5bdxd-64" value="" style="group" vertex="1" connectable="0" parent="1">
          <mxGeometry x="80" y="180" width="640" height="80" as="geometry" />
        </mxCell>
        <mxCell id="Ex-S2w4-J81rD9a5bdxd-16" value="" style="group" vertex="1" connectable="0" parent="Ex-S2w4-J81rD9a5bdxd-64">
          <mxGeometry y="20" width="240" height="60" as="geometry" />
        </mxCell>
        <mxCell id="Ex-S2w4-J81rD9a5bdxd-5" value="" style="group" vertex="1" connectable="0" parent="Ex-S2w4-J81rD9a5bdxd-16">
          <mxGeometry width="240" height="40" as="geometry" />
        </mxCell>
        <mxCell id="Ex-S2w4-J81rD9a5bdxd-1" value="any" style="rounded=0;whiteSpace=wrap;html=1;" vertex="1" parent="Ex-S2w4-J81rD9a5bdxd-5">
          <mxGeometry y="20" width="239.99999999999997" height="20" as="geometry" />
        </mxCell>
        <mxCell id="Ex-S2w4-J81rD9a5bdxd-3" value="31" style="text;html=1;align=left;verticalAlign=middle;whiteSpace=wrap;rounded=0;spacingLeft=-1;" vertex="1" parent="Ex-S2w4-J81rD9a5bdxd-5">
          <mxGeometry width="59.99999999999999" height="20" as="geometry" />
        </mxCell>
        <mxCell id="Ex-S2w4-J81rD9a5bdxd-4" value="20" style="text;html=1;align=right;verticalAlign=middle;whiteSpace=wrap;rounded=0;spacingRight=-1;" vertex="1" parent="Ex-S2w4-J81rD9a5bdxd-5">
          <mxGeometry x="180" width="59.99999999999999" height="20" as="geometry" />
        </mxCell>
        <mxCell id="Ex-S2w4-J81rD9a5bdxd-15" value="12" style="text;html=1;align=center;verticalAlign=middle;whiteSpace=wrap;rounded=0;" vertex="1" parent="Ex-S2w4-J81rD9a5bdxd-16">
          <mxGeometry y="40" width="240" height="20" as="geometry" />
        </mxCell>
        <mxCell id="Ex-S2w4-J81rD9a5bdxd-18" value="" style="group" vertex="1" connectable="0" parent="Ex-S2w4-J81rD9a5bdxd-64">
          <mxGeometry x="240" y="20" width="100" height="60" as="geometry" />
        </mxCell>
        <mxCell id="Ex-S2w4-J81rD9a5bdxd-6" value="" style="group" vertex="1" connectable="0" parent="Ex-S2w4-J81rD9a5bdxd-18">
          <mxGeometry width="100" height="40" as="geometry" />
        </mxCell>
        <mxCell id="Ex-S2w4-J81rD9a5bdxd-7" value="rs1" style="rounded=0;whiteSpace=wrap;html=1;" vertex="1" parent="Ex-S2w4-J81rD9a5bdxd-6">
          <mxGeometry y="20" width="99.99999999999999" height="20" as="geometry" />
        </mxCell>
        <mxCell id="Ex-S2w4-J81rD9a5bdxd-8" value="19" style="text;html=1;align=left;verticalAlign=middle;whiteSpace=wrap;rounded=0;spacingLeft=-1;" vertex="1" parent="Ex-S2w4-J81rD9a5bdxd-6">
          <mxGeometry width="24.999999999999996" height="20" as="geometry" />
        </mxCell>
        <mxCell id="Ex-S2w4-J81rD9a5bdxd-9" value="15" style="text;html=1;align=right;verticalAlign=middle;whiteSpace=wrap;rounded=0;spacingRight=-1;spacingLeft=0;" vertex="1" parent="Ex-S2w4-J81rD9a5bdxd-6">
          <mxGeometry x="75" width="24.999999999999996" height="20" as="geometry" />
        </mxCell>
        <mxCell id="Ex-S2w4-J81rD9a5bdxd-17" value="5" style="text;html=1;align=center;verticalAlign=middle;whiteSpace=wrap;rounded=0;" vertex="1" parent="Ex-S2w4-J81rD9a5bdxd-18">
          <mxGeometry y="40" width="100" height="20" as="geometry" />
        </mxCell>
        <mxCell id="Ex-S2w4-J81rD9a5bdxd-20" value="" style="group" vertex="1" connectable="0" parent="Ex-S2w4-J81rD9a5bdxd-64">
          <mxGeometry x="340" y="20" width="60" height="60" as="geometry" />
        </mxCell>
        <mxCell id="Ex-S2w4-J81rD9a5bdxd-10" value="" style="group" vertex="1" connectable="0" parent="Ex-S2w4-J81rD9a5bdxd-20">
          <mxGeometry width="60" height="40" as="geometry" />
        </mxCell>
        <mxCell id="Ex-S2w4-J81rD9a5bdxd-11" value="func3" style="rounded=0;whiteSpace=wrap;html=1;" vertex="1" parent="Ex-S2w4-J81rD9a5bdxd-10">
          <mxGeometry y="20" width="59.999999999999986" height="20" as="geometry" />
        </mxCell>
        <mxCell id="Ex-S2w4-J81rD9a5bdxd-12" value="14" style="text;html=1;align=left;verticalAlign=middle;whiteSpace=wrap;rounded=0;spacingLeft=-1;" vertex="1" parent="Ex-S2w4-J81rD9a5bdxd-10">
          <mxGeometry width="14.999999999999996" height="20" as="geometry" />
        </mxCell>
        <mxCell id="Ex-S2w4-J81rD9a5bdxd-13" value="12" style="text;html=1;align=right;verticalAlign=middle;whiteSpace=wrap;rounded=0;spacingRight=-1;spacingLeft=0;" vertex="1" parent="Ex-S2w4-J81rD9a5bdxd-10">
          <mxGeometry x="45" width="14.999999999999996" height="20" as="geometry" />
        </mxCell>
        <mxCell id="Ex-S2w4-J81rD9a5bdxd-19" value="3" style="text;html=1;align=center;verticalAlign=middle;whiteSpace=wrap;rounded=0;" vertex="1" parent="Ex-S2w4-J81rD9a5bdxd-20">
          <mxGeometry y="40" width="60" height="20" as="geometry" />
        </mxCell>
        <mxCell id="Ex-S2w4-J81rD9a5bdxd-21" value="" style="group" vertex="1" connectable="0" parent="Ex-S2w4-J81rD9a5bdxd-64">
          <mxGeometry x="400" y="20" width="100" height="60" as="geometry" />
        </mxCell>
        <mxCell id="Ex-S2w4-J81rD9a5bdxd-22" value="" style="group" vertex="1" connectable="0" parent="Ex-S2w4-J81rD9a5bdxd-21">
          <mxGeometry width="100" height="40" as="geometry" />
        </mxCell>
        <mxCell id="Ex-S2w4-J81rD9a5bdxd-23" value="any" style="rounded=0;whiteSpace=wrap;html=1;" vertex="1" parent="Ex-S2w4-J81rD9a5bdxd-22">
          <mxGeometry y="20" width="99.99999999999999" height="20" as="geometry" />
        </mxCell>
        <mxCell id="Ex-S2w4-J81rD9a5bdxd-24" value="11" style="text;html=1;align=left;verticalAlign=middle;whiteSpace=wrap;rounded=0;spacingLeft=-1;" vertex="1" parent="Ex-S2w4-J81rD9a5bdxd-22">
          <mxGeometry width="24.999999999999996" height="20" as="geometry" />
        </mxCell>
        <mxCell id="Ex-S2w4-J81rD9a5bdxd-25" value="7" style="text;html=1;align=right;verticalAlign=middle;whiteSpace=wrap;rounded=0;spacingRight=-1;spacingLeft=0;" vertex="1" parent="Ex-S2w4-J81rD9a5bdxd-22">
          <mxGeometry x="75" width="24.999999999999996" height="20" as="geometry" />
        </mxCell>
        <mxCell id="Ex-S2w4-J81rD9a5bdxd-26" value="5" style="text;html=1;align=center;verticalAlign=middle;whiteSpace=wrap;rounded=0;" vertex="1" parent="Ex-S2w4-J81rD9a5bdxd-21">
          <mxGeometry y="40" width="100" height="20" as="geometry" />
        </mxCell>
        <mxCell id="Ex-S2w4-J81rD9a5bdxd-27" value="" style="group" vertex="1" connectable="0" parent="Ex-S2w4-J81rD9a5bdxd-64">
          <mxGeometry x="500" y="20" width="140" height="60" as="geometry" />
        </mxCell>
        <mxCell id="Ex-S2w4-J81rD9a5bdxd-28" value="" style="group" vertex="1" connectable="0" parent="Ex-S2w4-J81rD9a5bdxd-27">
          <mxGeometry width="140" height="40" as="geometry" />
        </mxCell>
        <mxCell id="Ex-S2w4-J81rD9a5bdxd-29" value="opcode" style="rounded=0;whiteSpace=wrap;html=1;" vertex="1" parent="Ex-S2w4-J81rD9a5bdxd-28">
          <mxGeometry y="20" width="139.99999999999997" height="20" as="geometry" />
        </mxCell>
        <mxCell id="Ex-S2w4-J81rD9a5bdxd-30" value="6" style="text;html=1;align=left;verticalAlign=middle;whiteSpace=wrap;rounded=0;spacingLeft=-1;" vertex="1" parent="Ex-S2w4-J81rD9a5bdxd-28">
          <mxGeometry width="34.99999999999999" height="20" as="geometry" />
        </mxCell>
        <mxCell id="Ex-S2w4-J81rD9a5bdxd-31" value="0" style="text;html=1;align=right;verticalAlign=middle;whiteSpace=wrap;rounded=0;spacingRight=-1;spacingLeft=0;" vertex="1" parent="Ex-S2w4-J81rD9a5bdxd-28">
          <mxGeometry x="105" width="34.99999999999999" height="20" as="geometry" />
        </mxCell>
        <mxCell id="Ex-S2w4-J81rD9a5bdxd-32" value="7" style="text;html=1;align=center;verticalAlign=middle;whiteSpace=wrap;rounded=0;" vertex="1" parent="Ex-S2w4-J81rD9a5bdxd-27">
          <mxGeometry y="40" width="140" height="20" as="geometry" />
        </mxCell>
        <mxCell id="Ex-S2w4-J81rD9a5bdxd-63" value="&lt;b&gt;PUSH&lt;/b&gt;" style="text;html=1;align=center;verticalAlign=middle;whiteSpace=wrap;rounded=0;" vertex="1" parent="Ex-S2w4-J81rD9a5bdxd-64">
          <mxGeometry width="640" height="20" as="geometry" />
        </mxCell>
        <mxCell id="Ex-S2w4-J81rD9a5bdxd-66" value="" style="group" vertex="1" connectable="0" parent="1">
          <mxGeometry x="80" y="260" width="640" height="80" as="geometry" />
        </mxCell>
        <mxCell id="Ex-S2w4-J81rD9a5bdxd-33" value="" style="group" vertex="1" connectable="0" parent="Ex-S2w4-J81rD9a5bdxd-66">
          <mxGeometry y="20" width="340" height="60" as="geometry" />
        </mxCell>
        <mxCell id="Ex-S2w4-J81rD9a5bdxd-34" value="" style="group" vertex="1" connectable="0" parent="Ex-S2w4-J81rD9a5bdxd-33">
          <mxGeometry width="340" height="40" as="geometry" />
        </mxCell>
        <mxCell id="Ex-S2w4-J81rD9a5bdxd-35" value="any" style="rounded=0;whiteSpace=wrap;html=1;" vertex="1" parent="Ex-S2w4-J81rD9a5bdxd-34">
          <mxGeometry y="20" width="340" height="20" as="geometry" />
        </mxCell>
        <mxCell id="Ex-S2w4-J81rD9a5bdxd-36" value="31" style="text;html=1;align=left;verticalAlign=middle;whiteSpace=wrap;rounded=0;spacingLeft=-1;" vertex="1" parent="Ex-S2w4-J81rD9a5bdxd-34">
          <mxGeometry width="85" height="20" as="geometry" />
        </mxCell>
        <mxCell id="Ex-S2w4-J81rD9a5bdxd-37" value="15" style="text;html=1;align=right;verticalAlign=middle;whiteSpace=wrap;rounded=0;spacingRight=-1;" vertex="1" parent="Ex-S2w4-J81rD9a5bdxd-34">
          <mxGeometry x="255" width="85" height="20" as="geometry" />
        </mxCell>
        <mxCell id="Ex-S2w4-J81rD9a5bdxd-38" value="17" style="text;html=1;align=center;verticalAlign=middle;whiteSpace=wrap;rounded=0;" vertex="1" parent="Ex-S2w4-J81rD9a5bdxd-33">
          <mxGeometry y="40" width="340" height="20" as="geometry" />
        </mxCell>
        <mxCell id="Ex-S2w4-J81rD9a5bdxd-45" value="" style="group" vertex="1" connectable="0" parent="Ex-S2w4-J81rD9a5bdxd-66">
          <mxGeometry x="340" y="20" width="60" height="60" as="geometry" />
        </mxCell>
        <mxCell id="Ex-S2w4-J81rD9a5bdxd-46" value="" style="group" vertex="1" connectable="0" parent="Ex-S2w4-J81rD9a5bdxd-45">
          <mxGeometry width="60" height="40" as="geometry" />
        </mxCell>
        <mxCell id="Ex-S2w4-J81rD9a5bdxd-47" value="func3" style="rounded=0;whiteSpace=wrap;html=1;" vertex="1" parent="Ex-S2w4-J81rD9a5bdxd-46">
          <mxGeometry y="20" width="59.999999999999986" height="20" as="geometry" />
        </mxCell>
        <mxCell id="Ex-S2w4-J81rD9a5bdxd-48" value="14" style="text;html=1;align=left;verticalAlign=middle;whiteSpace=wrap;rounded=0;spacingLeft=-1;" vertex="1" parent="Ex-S2w4-J81rD9a5bdxd-46">
          <mxGeometry width="14.999999999999996" height="20" as="geometry" />
        </mxCell>
        <mxCell id="Ex-S2w4-J81rD9a5bdxd-49" value="12" style="text;html=1;align=right;verticalAlign=middle;whiteSpace=wrap;rounded=0;spacingRight=-1;spacingLeft=0;" vertex="1" parent="Ex-S2w4-J81rD9a5bdxd-46">
          <mxGeometry x="45" width="14.999999999999996" height="20" as="geometry" />
        </mxCell>
        <mxCell id="Ex-S2w4-J81rD9a5bdxd-50" value="3" style="text;html=1;align=center;verticalAlign=middle;whiteSpace=wrap;rounded=0;" vertex="1" parent="Ex-S2w4-J81rD9a5bdxd-45">
          <mxGeometry y="40" width="60" height="20" as="geometry" />
        </mxCell>
        <mxCell id="Ex-S2w4-J81rD9a5bdxd-51" value="" style="group" vertex="1" connectable="0" parent="Ex-S2w4-J81rD9a5bdxd-66">
          <mxGeometry x="400" y="20" width="100" height="60" as="geometry" />
        </mxCell>
        <mxCell id="Ex-S2w4-J81rD9a5bdxd-52" value="" style="group" vertex="1" connectable="0" parent="Ex-S2w4-J81rD9a5bdxd-51">
          <mxGeometry width="100" height="40" as="geometry" />
        </mxCell>
        <mxCell id="Ex-S2w4-J81rD9a5bdxd-53" value="rd" style="rounded=0;whiteSpace=wrap;html=1;" vertex="1" parent="Ex-S2w4-J81rD9a5bdxd-52">
          <mxGeometry y="20" width="99.99999999999999" height="20" as="geometry" />
        </mxCell>
        <mxCell id="Ex-S2w4-J81rD9a5bdxd-54" value="11" style="text;html=1;align=left;verticalAlign=middle;whiteSpace=wrap;rounded=0;spacingLeft=-1;" vertex="1" parent="Ex-S2w4-J81rD9a5bdxd-52">
          <mxGeometry width="24.999999999999996" height="20" as="geometry" />
        </mxCell>
        <mxCell id="Ex-S2w4-J81rD9a5bdxd-55" value="7" style="text;html=1;align=right;verticalAlign=middle;whiteSpace=wrap;rounded=0;spacingRight=-1;spacingLeft=0;" vertex="1" parent="Ex-S2w4-J81rD9a5bdxd-52">
          <mxGeometry x="75" width="24.999999999999996" height="20" as="geometry" />
        </mxCell>
        <mxCell id="Ex-S2w4-J81rD9a5bdxd-56" value="5" style="text;html=1;align=center;verticalAlign=middle;whiteSpace=wrap;rounded=0;" vertex="1" parent="Ex-S2w4-J81rD9a5bdxd-51">
          <mxGeometry y="40" width="100" height="20" as="geometry" />
        </mxCell>
        <mxCell id="Ex-S2w4-J81rD9a5bdxd-57" value="" style="group" vertex="1" connectable="0" parent="Ex-S2w4-J81rD9a5bdxd-66">
          <mxGeometry x="500" y="20" width="140" height="60" as="geometry" />
        </mxCell>
        <mxCell id="Ex-S2w4-J81rD9a5bdxd-58" value="" style="group" vertex="1" connectable="0" parent="Ex-S2w4-J81rD9a5bdxd-57">
          <mxGeometry width="140" height="40" as="geometry" />
        </mxCell>
        <mxCell id="Ex-S2w4-J81rD9a5bdxd-59" value="opcode" style="rounded=0;whiteSpace=wrap;html=1;" vertex="1" parent="Ex-S2w4-J81rD9a5bdxd-58">
          <mxGeometry y="20" width="139.99999999999997" height="20" as="geometry" />
        </mxCell>
        <mxCell id="Ex-S2w4-J81rD9a5bdxd-60" value="6" style="text;html=1;align=left;verticalAlign=middle;whiteSpace=wrap;rounded=0;spacingLeft=-1;" vertex="1" parent="Ex-S2w4-J81rD9a5bdxd-58">
          <mxGeometry width="34.99999999999999" height="20" as="geometry" />
        </mxCell>
        <mxCell id="Ex-S2w4-J81rD9a5bdxd-61" value="0" style="text;html=1;align=right;verticalAlign=middle;whiteSpace=wrap;rounded=0;spacingRight=-1;spacingLeft=0;" vertex="1" parent="Ex-S2w4-J81rD9a5bdxd-58">
          <mxGeometry x="105" width="34.99999999999999" height="20" as="geometry" />
        </mxCell>
        <mxCell id="Ex-S2w4-J81rD9a5bdxd-62" value="7" style="text;html=1;align=center;verticalAlign=middle;whiteSpace=wrap;rounded=0;" vertex="1" parent="Ex-S2w4-J81rD9a5bdxd-57">
          <mxGeometry y="40" width="140" height="20" as="geometry" />
        </mxCell>
        <mxCell id="Ex-S2w4-J81rD9a5bdxd-65" value="&lt;b&gt;POP&lt;/b&gt;" style="text;html=1;align=center;verticalAlign=middle;whiteSpace=wrap;rounded=0;" vertex="1" parent="Ex-S2w4-J81rD9a5bdxd-66">
          <mxGeometry width="640" height="20" as="geometry" />
        </mxCell>
      </root>
    </mxGraphModel>
  </diagram>
</mxfile>
